<?xml version="1.0" standalone="no"?>
<!DOCTYPE svg PUBLIC "-//W3C//DTD SVG 20010904//EN"
 "http://www.w3.org/TR/2001/REC-SVG-20010904/DTD/svg10.dtd">
<svg version="1.0" xmlns="http://www.w3.org/2000/svg"
 width="1000.000000pt" height="1000.000000pt" viewBox="0 0 1000.000000 1000.000000"
 preserveAspectRatio="xMidYMid meet">
<metadata>
Created by potrace 1.14, written by Peter Selinger 2001-2017
</metadata>
<g transform="translate(0.000000,1000.000000) scale(0.100000,-0.100000)"
fill="#000000" stroke="none">
<path d="M1953 7297 c-37 -16 -44 -57 -23 -129 33 -110 32 -117 -20 -134 -25
-8 -108 -46 -185 -84 -479 -238 -820 -665 -954 -1195 -19 -75 -24 -100 -36
-185 -15 -98 -20 -175 -19 -275 1 -104 11 -253 19 -264 1 -4 6 -28 9 -56 22
-164 126 -463 182 -522 6 -6 28 -20 48 -31 105 -56 238 25 239 146 1 39 -10
69 -55 158 -59 114 -100 213 -94 223 2 3 7 37 11 76 4 38 8 72 10 75 1 3 5 32
9 65 3 33 10 84 15 114 5 30 7 72 5 95 -14 198 -14 205 4 210 9 3 26 19 37 36
23 34 28 28 51 -46 12 -39 11 -43 -11 -64 -34 -32 -62 -105 -71 -185 -14 -126
-10 -175 20 -245 23 -51 29 -80 29 -138 1 -60 3 -72 16 -70 16 3 18 7 20 58 1
22 5 28 17 23 10 -4 14 -13 10 -28 -11 -42 14 -46 89 -14 38 17 71 32 73 34 2
2 -9 24 -26 48 -74 110 -145 305 -151 416 -2 25 -15 2 -17 -30 -4 -50 -12 -63
-28 -50 -26 22 0 114 44 156 33 32 37 59 15 111 -16 40 -5 37 35 -9 53 -62
100 -140 100 -167 0 -36 24 -104 50 -141 19 -26 20 -37 14 -111 -3 -46 -8 -86
-10 -89 -2 -3 -6 -29 -9 -58 l-6 -52 28 7 c15 3 44 10 63 15 47 12 50 12 50
-7 0 -9 7 -14 18 -12 15 3 17 17 16 128 0 69 3 127 7 130 4 3 11 21 14 40 8
49 35 129 56 167 22 40 16 77 -20 123 -39 50 -43 65 -20 86 10 9 19 12 19 6 0
-6 15 -43 34 -84 41 -91 52 -125 67 -213 7 -38 20 -89 30 -112 21 -49 47 -168
50 -231 2 -32 7 -42 18 -40 13 3 15 16 13 63 -1 37 4 72 13 91 28 60 26 98
-10 172 -19 38 -49 111 -66 163 -31 94 -87 192 -114 203 -8 3 -15 11 -15 18 0
10 27 13 109 13 60 0 111 -2 113 -5 29 -43 42 -90 38 -130 -12 -101 -1 -257
27 -385 13 -62 19 -107 22 -183 1 -17 6 -22 19 -20 10 2 17 12 16 23 -3 64
-15 156 -23 181 -18 55 -23 109 -26 279 -2 132 -6 177 -18 201 -14 28 -14 31
3 41 29 19 48 -12 51 -82 1 -33 7 -76 13 -95 5 -19 11 -38 12 -42 1 -5 2 -9 3
-10 1 -2 3 -45 6 -96 4 -105 16 -152 54 -204 24 -33 27 -44 26 -117 -1 -72 1
-81 17 -81 14 0 18 8 18 38 0 28 7 45 25 62 l24 23 -5 -62 c-4 -49 -2 -61 9
-61 24 0 27 22 22 165 -4 98 -11 152 -24 193 -27 80 -29 171 -5 296 2 10 4 49
5 85 1 36 4 70 6 74 8 14 31 -27 27 -48 -15 -68 -23 -254 -14 -320 l5 -40 29
75 c26 66 90 201 115 239 7 11 12 7 25 -17 24 -47 8 -281 -24 -341 -5 -9 3
-34 20 -65 15 -28 33 -69 40 -91 28 -90 81 -205 95 -205 7 0 18 -13 25 -30 29
-69 54 20 29 103 -13 44 -17 93 -17 218 1 88 4 179 9 202 4 23 10 59 13 80 16
97 18 112 27 134 5 14 5 23 -1 23 -6 0 -10 -5 -10 -11 0 -36 -99 -199 -121
-199 -18 0 -32 48 -35 114 -2 38 -8 74 -13 79 -17 17 -13 46 9 74 19 24 19 27
4 44 -19 21 -15 67 10 121 8 18 17 45 18 59 2 15 10 34 18 44 12 15 11 16 -13
10 -21 -6 -27 -3 -27 8 0 18 14 23 95 32 33 3 67 8 75 10 17 4 52 -63 70 -136
9 -34 26 -61 60 -96 42 -43 47 -53 45 -86 -3 -30 6 -50 46 -111 27 -41 55 -79
62 -83 6 -4 18 -20 26 -35 7 -14 27 -41 43 -59 33 -35 48 -68 48 -102 0 -15
11 -29 31 -41 17 -10 44 -39 60 -65 25 -38 29 -55 27 -98 -3 -44 1 -56 27 -89
35 -44 98 -115 140 -159 l30 -32 56 16 c46 13 56 20 53 36 -4 33 -14 88 -20
119 -6 36 -44 126 -53 127 -56 6 -195 64 -220 90 -24 26 -37 54 -56 123 -11
41 -29 72 -59 105 -24 25 -54 59 -67 75 -13 17 -41 49 -63 73 -26 29 -40 54
-43 80 -5 49 -33 113 -48 113 -7 0 -18 6 -24 14 -21 26 53 88 94 79 11 -3 44
-8 74 -12 64 -9 74 -20 91 -104 7 -34 23 -81 36 -104 13 -23 24 -50 24 -61 0
-13 17 -26 60 -45 33 -15 63 -27 68 -27 10 0 36 -67 36 -96 1 -12 12 -32 25
-46 17 -18 25 -37 25 -67 1 -35 6 -44 33 -61 18 -11 39 -35 47 -53 16 -39 55
-81 94 -101 22 -11 30 -27 45 -85 22 -85 78 -173 146 -230 49 -41 71 -50 71
-31 0 6 -28 39 -63 73 -74 74 -112 142 -129 232 -8 41 -17 65 -26 65 -7 0 -27
7 -43 16 -26 13 -30 20 -24 42 3 15 14 34 24 43 17 14 17 19 5 55 -16 46 -14
36 -14 77 0 31 -4 35 -39 46 -22 6 -52 25 -68 42 -15 17 -49 54 -75 82 -27 27
-48 54 -48 59 0 4 -5 8 -11 8 -7 0 -27 9 -46 21 l-34 21 22 19 c19 16 23 16
36 4 8 -8 19 -15 24 -15 5 0 9 -7 9 -15 0 -19 51 -45 87 -45 22 0 37 -11 70
-53 22 -29 61 -66 84 -82 24 -16 60 -47 80 -67 20 -21 43 -38 52 -38 18 0 70
-29 137 -76 25 -17 61 -37 80 -44 28 -10 40 -22 54 -57 14 -34 32 -53 72 -79
29 -18 55 -42 58 -52 4 -10 16 -29 27 -41 19 -20 20 -25 7 -52 -14 -28 -15
-29 -32 -10 -10 11 -50 26 -102 37 -77 17 -89 23 -125 61 -37 40 -50 46 -129
57 -14 2 -32 0 -40 -5 -41 -23 -41 -23 -19 -85 11 -32 22 -68 24 -78 3 -11 22
-38 44 -60 21 -23 52 -55 67 -73 28 -31 88 -51 233 -79 13 -3 26 -6 30 -6 3
-1 21 6 40 16 18 10 37 14 41 9 4 -4 20 -62 35 -128 32 -141 46 -160 108 -156
14 1 191 165 319 296 31 32 40 63 25 93 -12 27 -61 47 -194 82 -38 9 -41 13
-37 37 3 15 7 29 9 33 7 11 35 186 42 261 68 751 -351 1481 -1042 1814 -197
95 -418 160 -610 179 -32 3 -98 -23 -126 -50 -80 -77 -50 -232 52 -275 l30
-12 -6 -111 c-2 -61 -7 -178 -11 -261 -3 -82 -7 -172 -8 -198 -1 -27 2 -51 6
-53 4 -3 9 14 9 38 1 24 3 61 4 83 1 22 5 128 10 235 7 183 11 246 14 261 1 7
103 0 110 -7 4 -3 -17 -169 -34 -277 -5 -31 -16 -107 -20 -137 -1 -14 -6 -47
-10 -75 -4 -27 -3 -46 1 -42 4 4 9 13 10 20 1 7 9 66 18 132 9 66 21 147 26
180 5 33 12 78 15 100 15 112 6 104 96 90 l36 -5 -43 -168 c-25 -92 -51 -198
-59 -237 -9 -38 -25 -100 -35 -136 -22 -74 -24 -87 -11 -73 7 6 161 592 161
610 0 4 111 -24 117 -29 5 -5 -28 -101 -88 -251 -10 -27 -19 -54 -19 -60 0 -6
-6 -23 -14 -37 -7 -15 -21 -51 -31 -80 -10 -30 -21 -58 -26 -63 -11 -12 -12
-36 -1 -36 4 0 14 17 21 38 7 20 35 98 62 172 121 332 112 313 152 305 17 -4
41 -12 53 -19 20 -11 17 -20 -123 -305 -79 -161 -142 -296 -139 -299 3 -2 71
129 151 292 80 163 149 296 154 296 10 0 103 -38 110 -45 3 -4 -129 -219 -260
-424 -27 -41 -46 -77 -44 -80 3 -2 6 -2 8 0 5 6 132 205 227 357 46 72 87 132
92 132 15 0 98 -44 96 -51 -2 -4 -73 -96 -158 -205 -248 -315 -263 -334 -258
-339 2 -3 100 117 217 265 117 149 216 270 220 270 14 0 112 -72 106 -78 -86
-85 -421 -437 -423 -445 -2 -7 97 90 220 215 l223 228 48 -36 47 -36 -22 -20
c-13 -11 -34 -29 -48 -41 -14 -12 -63 -53 -110 -92 -47 -38 -87 -72 -90 -75
-3 -3 -54 -46 -115 -95 -60 -49 -112 -92 -115 -95 -3 -3 -20 -18 -38 -33 -19
-15 -28 -27 -22 -27 10 0 370 293 466 379 17 15 48 41 68 56 43 32 38 35 141
-71 110 -112 109 -96 13 -147 -107 -57 -258 -137 -378 -200 -170 -89 -241
-129 -236 -134 3 -3 42 15 88 40 46 24 133 70 193 102 61 32 146 77 190 100
44 23 114 61 156 83 l77 40 19 -21 c31 -36 68 -88 111 -159 l41 -67 -72 -21
c-40 -12 -85 -26 -102 -31 -16 -5 -120 -34 -230 -64 -110 -31 -229 -65 -265
-75 -36 -11 -86 -24 -112 -31 -26 -6 -46 -15 -43 -19 4 -7 164 31 210 50 19 8
80 23 80 20 0 -1 14 4 30 10 17 7 37 13 45 15 8 2 42 11 75 21 33 10 65 19 70
20 6 1 28 7 50 13 22 6 43 11 47 12 4 1 56 16 116 33 l108 32 33 -70 c66 -138
119 -312 146 -471 18 -107 11 -522 -9 -542 -2 -2 -17 2 -35 8 -36 13 -51 35
-51 75 0 15 -16 55 -37 90 -30 52 -41 62 -62 62 -81 -3 -107 9 -187 90 -32 32
-33 32 -72 19 -38 -13 -41 -13 -78 15 -22 16 -60 41 -85 55 -39 21 -52 36 -83
98 -46 91 -57 101 -88 82 -25 -16 -55 -10 -76 16 -12 14 -5 15 59 13 59 -1 74
-5 88 -23 10 -11 30 -28 47 -36 16 -9 40 -26 54 -39 14 -13 38 -31 54 -42 36
-23 195 -78 210 -73 6 2 22 -4 36 -13 35 -24 63 -32 117 -32 60 0 122 -40 159
-103 14 -25 27 -45 28 -45 2 0 2 16 1 35 -2 50 -30 82 -124 140 -45 28 -88 61
-96 72 -8 12 -38 34 -67 51 -29 17 -66 45 -82 62 l-30 32 72 -3 c39 -2 74 0
78 4 4 4 -8 7 -27 8 -19 0 -77 2 -129 5 -52 2 -135 6 -185 8 -85 3 -91 5 -102
28 -28 57 -54 63 -143 33 -58 -19 -83 -22 -142 -17 -9 1 -19 10 -22 20 -4 9
-22 27 -42 40 -32 21 -40 22 -65 12 -16 -7 -29 -16 -29 -20 0 -12 -25 -19 -39
-11 -7 5 -23 50 -36 102 -24 94 -46 128 -84 130 -9 1 -29 3 -46 5 -121 15
-121 15 -159 -23 -20 -20 -41 -33 -49 -30 -8 3 -20 27 -26 53 -7 26 -19 61
-29 78 -9 17 -16 34 -17 38 0 13 -35 49 -43 44 -9 -6 -83 -17 -141 -21 -51 -4
-60 -13 -86 -75 -25 -59 -74 -135 -118 -184 -40 -44 -54 -41 -77 14 -15 35
-15 35 -41 11 -24 -22 -62 -32 -80 -20 -17 10 -29 2 -29 -20 0 -10 -9 -28 -20
-41 -11 -13 -20 -18 -20 -12 0 12 -18 19 -75 26 -22 3 -134 19 -250 36 -115
17 -228 33 -250 36 -22 3 -51 7 -65 9 -14 3 -47 7 -74 10 -27 3 -72 10 -99 16
-27 5 -54 9 -58 9 -14 0 -10 -17 4 -17 19 -1 110 -14 127 -18 8 -2 35 -7 60
-10 25 -3 74 -10 110 -15 111 -16 144 -21 185 -26 22 -3 81 -11 130 -19 108
-18 150 -23 190 -25 29 -1 29 -2 7 -12 -12 -6 -25 -22 -29 -35 -4 -19 -10 -23
-27 -19 -27 8 -628 15 -621 8 3 -3 61 -8 128 -10 115 -3 148 -9 119 -19 -7 -3
-32 -25 -55 -49 -23 -24 -48 -44 -54 -44 -7 0 -29 16 -50 35 l-36 34 -21 -28
-22 -29 -29 29 c-50 51 -105 68 -105 34 0 -20 -50 -76 -65 -73 -6 2 -23 -10
-37 -27 l-24 -30 1 -232 c1 -226 -5 -278 -20 -171 -4 29 -9 62 -11 73 -26 124
-23 385 6 535 49 259 170 526 328 727 l17 22 85 -54 c47 -30 92 -58 100 -62 8
-3 33 -19 55 -33 22 -15 139 -89 260 -165 121 -76 230 -145 243 -153 12 -8 22
-10 22 -5 0 4 -91 66 -202 136 -112 70 -259 163 -328 207 -69 44 -146 92 -172
106 -27 15 -48 32 -48 37 0 5 47 57 105 115 l104 104 163 -160 c347 -340 453
-441 458 -436 3 3 -54 62 -125 131 -322 312 -475 464 -475 471 0 10 116 96
187 139 l51 32 28 -42 c16 -23 33 -50 39 -59 5 -10 94 -144 198 -297 164 -246
207 -305 207 -288 0 2 -104 159 -230 348 l-230 344 62 32 c35 18 66 32 69 33
7 0 28 -61 49 -139 6 -24 22 -53 34 -65 13 -11 51 -75 86 -141 35 -66 75 -142
90 -170 15 -27 37 -70 49 -93 13 -24 25 -42 28 -39 4 5 -63 139 -183 365 -25
45 -30 62 -19 62 8 0 30 14 50 31 20 18 37 30 39 28 2 -2 38 -92 80 -199 99
-250 139 -345 143 -334 1 5 -46 131 -106 279 l-108 270 43 45 c24 24 46 41 50
38 3 -4 10 -24 15 -45 5 -21 11 -45 13 -53 15 -60 110 -390 117 -409 6 -13 12
-22 14 -19 3 3 -19 90 -49 194 -30 104 -64 226 -76 272 l-23 83 29 31 c67 72
75 78 79 65 2 -6 16 -86 31 -177 14 -91 28 -174 30 -185 3 -11 7 -35 10 -54 3
-18 7 -43 10 -54 2 -12 6 -38 9 -59 13 -82 33 -180 40 -186 8 -8 -2 74 -20
168 -9 43 -12 62 -24 140 -7 41 -16 95 -21 120 -5 25 -12 61 -15 80 -2 19 -7
46 -9 60 -27 157 -28 170 -12 195 21 32 20 58 -2 85 -13 17 -61 32 -220 71
-248 60 -242 59 -269 46z m202 -1585 c-3 -59 -8 -120 -11 -137 -4 -16 -6 -38
-6 -47 2 -63 -58 37 -88 143 l-17 63 24 35 c29 43 33 45 72 48 l31 2 -5 -107z
m235 57 c-14 -26 -18 -24 -12 6 2 14 8 22 13 19 5 -3 5 -14 -1 -25z m-405 -30
c11 -17 -1 -21 -15 -4 -8 9 -8 15 -2 15 6 0 14 -5 17 -11z m-365 -38 c0 -5 -9
-11 -21 -14 -16 -4 -18 -3 -8 9 13 16 29 19 29 5z m1928 -23 c22 -22 12 -28
-53 -28 -71 0 -83 10 -32 27 45 14 71 15 85 1z m-2009 -103 c6 -27 14 -61 17
-75 6 -28 6 -84 0 -115 -3 -11 -5 -29 -6 -40 -1 -18 -2 -17 -15 5 -9 16 -13
56 -13 115 1 50 -2 115 -6 145 -7 63 5 44 23 -35z m2283 44 c-4 -3 -34 -15
-68 -26 -59 -20 -61 -20 -85 -2 -13 10 -29 19 -36 19 -6 0 -15 5 -18 11 -5 7
27 9 104 7 61 -1 107 -5 103 -9z m-2446 -35 c13 -14 24 -28 25 -32 0 -4 3 -26
5 -49 9 -78 -16 -47 -51 65 -16 49 -12 52 21 16z m2533 -33 c24 -22 57 -46 75
-55 34 -16 91 -74 82 -83 -7 -8 -109 46 -119 63 -4 8 -14 14 -22 14 -7 0 -34
16 -60 35 -45 35 -46 35 -74 19 -27 -16 -73 -13 -57 4 8 7 104 40 122 41 6 1
30 -17 53 -38z m-2472 7 c-3 -8 -6 -5 -6 6 -1 11 2 17 5 13 3 -3 4 -12 1 -19z
m2535 -362 c6 -14 1 -11 -16 8 -14 16 -26 31 -26 34 0 10 32 -22 42 -42z"/>
<path d="M2565 6985 c3 -50 8 -119 10 -155 2 -36 7 -114 11 -175 4 -60 8 -123
9 -140 2 -16 3 -42 4 -57 0 -16 6 -28 12 -28 6 0 8 8 5 18 -3 9 -8 69 -12 132
-7 121 -8 136 -19 320 -9 153 -10 158 -19 167 -4 4 -5 -33 -1 -82z"/>
<path d="M1770 6745 c0 -6 84 -112 186 -235 188 -227 229 -274 223 -253 -3 9
-151 192 -184 227 -9 9 -156 186 -207 250 -10 11 -18 16 -18 11z"/>
<path d="M1570 6533 c0 -6 15 -21 34 -34 19 -13 130 -100 246 -192 117 -92
215 -165 218 -162 3 3 3 6 1 8 -7 6 -284 221 -299 234 -165 132 -200 157 -200
146z"/>
<path d="M4935 6500 l-60 -5 0 -323 c0 -178 3 -326 8 -329 14 -9 129 -8 134 0
3 5 5 64 5 133 0 109 2 124 16 125 9 1 60 2 112 3 l95 1 3 66 3 67 -83 0 c-46
0 -97 0 -115 1 l-31 1 1 63 2 62 100 2 c55 1 108 2 118 2 14 1 17 11 17 65 l0
65 -132 3 c-73 2 -160 1 -193 -2z"/>
<path d="M5772 6499 c-15 -5 -17 -28 -18 -221 -2 -231 -8 -263 -57 -290 -28
-15 -117 -14 -145 1 -47 25 -52 55 -52 291 l0 220 -76 0 -76 0 4 -247 c3 -235
4 -250 26 -291 48 -91 126 -132 251 -132 86 0 154 25 203 74 60 62 68 103 68
367 l0 227 -55 4 c-31 1 -64 0 -73 -3z"/>
<path d="M6017 6502 c-14 -3 -16 -41 -16 -333 0 -301 2 -329 17 -330 20 -1
354 -1 363 0 3 1 5 30 5 66 l1 65 -119 0 -118 0 0 264 0 264 -59 4 c-32 1 -66
2 -74 0z"/>
<path d="M6479 6483 c-4 -89 0 -635 4 -640 8 -7 360 -8 373 -1 7 5 9 49 5 115
-1 9 -35 13 -118 15 l-118 3 0 260 0 260 -72 3 c-64 3 -73 1 -74 -15z"/>
<path d="M3545 6280 c-137 -93 -254 -171 -260 -173 -5 -2 -7 -7 -4 -11 5 -6
486 309 519 340 42 40 -29 -3 -255 -156z"/>
<path d="M1689 6149 c156 -77 288 -138 293 -137 12 4 -543 278 -562 278 -8 -1
113 -64 269 -141z"/>
<path d="M1210 6220 c0 -5 5 -10 12 -10 6 0 72 -23 147 -51 209 -78 226 -84
386 -144 83 -31 157 -58 165 -60 8 -2 40 -13 70 -24 62 -24 63 -24 56 -12 -3
4 -34 18 -68 31 -35 12 -121 44 -193 70 -71 27 -200 74 -285 105 -85 31 -183
68 -217 81 -70 27 -73 28 -73 14z"/>
<path d="M3685 6095 c-137 -55 -270 -108 -294 -118 -24 -10 -41 -20 -38 -23 2
-3 38 8 78 25 41 16 170 68 288 115 118 47 216 88 219 91 17 17 -28 1 -253
-90z"/>
<path d="M1315 6020 c-3 -5 244 -74 340 -94 11 -3 74 -18 140 -35 126 -32 150
-36 124 -21 -9 5 -83 25 -165 45 -82 20 -162 40 -179 45 -16 5 -57 16 -90 24
-33 8 -84 21 -113 29 -29 8 -54 11 -57 7z"/>
<path d="M3989 5916 c-2 -2 -22 -6 -44 -9 -22 -3 -47 -8 -55 -11 -8 -3 -33 -7
-55 -10 -131 -18 -437 -75 -444 -82 -6 -6 66 0 119 11 21 5 121 22 339 60 13
2 45 8 70 12 25 4 49 8 54 9 4 1 16 2 27 3 22 1 28 21 7 21 -8 0 -16 -2 -18
-4z"/>
<path d="M4107 5794 c-1 -1 -51 -5 -112 -8 -123 -7 -210 -13 -335 -22 -47 -3
-121 -7 -165 -10 -151 -8 -186 -12 -193 -19 -6 -6 207 1 276 10 15 2 83 6 152
10 69 3 136 8 150 10 14 2 83 6 153 10 148 8 154 9 163 18 6 6 -83 6 -89 1z"/>
<path d="M2673 5748 c-6 -89 -19 -167 -31 -186 -8 -13 -17 -51 -18 -84 -2 -45
-9 -67 -24 -83 -11 -12 -18 -24 -15 -27 10 -10 16 -52 17 -108 0 -77 19 -39
21 43 2 43 7 67 19 79 13 13 17 33 16 76 -1 45 4 67 20 94 12 19 19 37 16 40
-2 3 -6 40 -8 82 -2 43 -6 79 -8 82 -3 2 -5 -2 -5 -8z"/>
<path d="M5100 5537 c-111 -44 -174 -98 -217 -187 -23 -46 -27 -69 -28 -140 0
-71 4 -94 26 -140 58 -123 168 -197 297 -201 103 -4 198 36 265 110 45 50 83
121 65 122 -7 0 -43 1 -79 1 -64 0 -68 -1 -105 -38 -120 -120 -305 -46 -320
129 -5 53 -2 69 18 106 13 25 41 58 62 75 71 58 199 41 254 -33 18 -24 25 -26
93 -26 71 0 74 1 71 23 -6 58 -89 144 -180 185 -52 23 -178 32 -222 14z"/>
<path d="M6473 5536 c-136 -44 -234 -163 -246 -299 -10 -105 46 -233 128 -295
141 -107 324 -98 447 22 46 45 95 122 84 133 -5 5 -29 6 -128 4 -25 -1 -38 -8
-53 -31 -39 -58 -153 -82 -223 -46 -70 36 -116 129 -105 214 5 38 34 95 63
123 69 68 198 64 262 -10 29 -33 34 -35 102 -36 39 -1 74 0 78 2 14 7 -39 97
-79 135 -85 82 -227 118 -330 84z"/>
<path d="M5592 5478 c24 -35 79 -113 123 -175 l78 -112 1 -158 1 -157 70 0 70
0 3 159 3 159 112 160 c63 89 117 167 121 174 5 9 -13 12 -78 12 l-86 0 -27
-42 c-39 -61 -50 -79 -69 -115 -10 -18 -21 -33 -25 -33 -4 0 -9 -10 -13 -22
-6 -24 -19 -7 -117 154 l-34 57 -88 1 -89 0 44 -62z"/>
<path d="M6974 5208 l1 -332 192 -1 193 0 -1 68 -1 67 -119 0 -120 0 1 193 c0
105 1 225 0 265 l0 72 -73 0 -73 0 0 -332z"/>
<path d="M7452 5208 l3 -332 175 -1 c96 0 182 3 191 6 11 6 15 22 14 66 l-1
58 -114 3 c-63 1 -117 7 -120 13 -7 11 -3 109 5 117 2 2 53 5 112 6 l107 1 1
62 c1 36 -3 64 -9 66 -6 2 -57 3 -113 2 -57 0 -103 2 -104 5 -6 35 -2 113 6
118 6 4 57 8 115 9 58 0 107 2 110 2 3 1 5 30 5 66 l0 65 -192 0 -193 0 2
-332z"/>
<path d="M2810 5485 c-7 -76 -34 -156 -76 -228 -41 -71 -66 -197 -62 -314 3
-89 0 -88 103 -65 64 14 130 48 170 88 31 31 28 52 -18 142 -45 86 -82 197
-97 292 -16 104 -17 108 -20 85z"/>
<path d="M1211 5444 c0 -11 3 -14 6 -6 3 7 2 16 -1 19 -3 4 -6 -2 -5 -13z"/>
<path d="M1445 4883 c-101 -37 -151 -50 -184 -47 -28 3 -32 2 -16 -5 30 -14
71 -13 128 4 111 31 166 23 290 -40 39 -21 99 -44 132 -52 68 -16 222 -20 237
-5 6 6 -1 9 -21 7 -17 -1 -28 1 -25 6 3 5 11 9 17 9 7 0 35 12 62 26 28 15 68
36 90 47 82 42 173 21 287 -66 l68 -52 -28 -22 c-15 -12 -32 -22 -39 -23 -6 0
-34 18 -63 41 -60 47 -108 69 -147 68 -24 -1 -23 -2 10 -10 48 -11 69 -22 135
-72 l52 -40 -40 -30 -41 -30 -61 32 c-60 31 -136 41 -165 23 -6 -4 17 -7 51
-8 50 0 72 -5 112 -29 l49 -29 -47 -12 c-26 -6 -79 -11 -117 -9 -60 2 -84 9
-183 56 -101 48 -120 54 -178 54 -52 0 -76 -6 -119 -28 -31 -17 -60 -26 -70
-22 -28 12 -140 14 -174 4 -39 -13 -189 -88 -218 -110 -12 -9 -20 -23 -18 -31
4 -15 41 -1 164 64 77 41 100 47 120 31 15 -11 35 -13 80 -9 46 5 66 2 80 -9
17 -13 18 -16 5 -25 -12 -8 -10 -9 10 -8 33 3 93 -41 80 -57 -8 -9 -4 -11 13
-8 14 3 33 -4 47 -16 l25 -20 -40 9 c-36 8 -38 7 -21 -6 17 -12 17 -14 3 -14
-9 0 -42 -11 -73 -25 -45 -20 -63 -23 -88 -16 -39 10 -85 6 -131 -13 -31 -13
-41 -13 -117 11 -46 14 -76 28 -68 31 8 2 58 25 110 50 75 35 106 45 145 45
45 -1 47 0 20 8 -43 14 -78 4 -184 -48 -92 -46 -120 -52 -174 -40 -20 4 -34
-1 -56 -18 -32 -28 -32 -29 -2 -160 55 -244 81 -338 98 -351 38 -28 69 -17
141 51 l69 64 39 -32 c21 -17 41 -34 44 -37 18 -20 159 -116 230 -157 161 -92
300 -147 484 -192 153 -38 232 -46 426 -46 181 0 231 5 381 35 357 73 687 255
955 526 120 121 147 164 146 230 -2 57 -24 98 -73 133 -34 25 -48 29 -97 27
-31 -1 -78 4 -105 12 -59 18 -88 12 -199 -39 -73 -34 -98 -40 -151 -40 -56 0
-112 14 -127 32 -3 3 -29 22 -58 41 -56 38 -56 41 3 70 17 9 44 15 62 14 17 0
29 2 26 7 -9 15 -62 6 -109 -19 -38 -20 -52 -24 -66 -15 -10 6 -27 11 -39 11
-21 0 -21 0 2 19 65 50 164 83 212 70 29 -8 147 -80 147 -90 0 -3 -16 -5 -35
-4 -20 1 -33 0 -30 -4 10 -9 59 -9 72 1 7 6 14 5 18 -2 3 -5 0 -10 -7 -11 -7
0 0 -5 16 -10 56 -16 226 1 226 23 0 6 -11 7 -27 3 -47 -12 -127 -13 -153 -3
-24 10 -24 10 -5 18 11 5 29 11 39 14 10 4 16 9 13 13 -4 3 -24 -2 -46 -11
l-39 -18 -67 46 c-37 25 -63 46 -59 47 25 2 55 10 138 38 50 17 104 32 121 34
40 5 110 -9 167 -33 57 -24 147 -32 134 -12 -3 5 -18 7 -33 5 -19 -3 -55 9
-113 39 -104 52 -165 57 -245 19 -110 -52 -142 -63 -200 -66 -86 -3 -132 14
-235 89 -105 78 -127 87 -200 88 -71 1 -114 -13 -215 -73 -78 -47 -84 -49
-144 -46 -34 2 -81 0 -105 -6 -44 -10 -45 -9 -108 40 -93 74 -142 97 -218 101
-62 4 -70 2 -155 -43 -144 -77 -149 -79 -165 -82 -75 -16 -185 9 -255 57 -104
71 -171 89 -240 63z m1767 -113 c118 -80 119 -80 72 -75 l-39 5 43 -11 44 -11
-39 -20 c-21 -11 -45 -26 -54 -34 -19 -17 -43 -18 -69 -4 -30 16 -111 18 -151
4 -34 -11 -39 -10 -83 19 l-47 30 43 27 c63 39 104 53 137 48 17 -2 28 -1 25
4 -8 12 -69 10 -101 -4 -15 -7 -47 -25 -71 -39 l-43 -27 -39 22 c-39 21 -51
36 -28 36 6 0 25 10 42 23 69 51 140 76 213 72 45 -2 64 -11 145 -65z m-440
-84 l53 -24 -27 -11 c-39 -15 -35 -21 6 -9 29 9 38 8 64 -11 17 -11 35 -21 41
-21 5 0 14 -6 18 -13 4 -8 17 -16 28 -19 11 -3 28 -9 38 -13 13 -6 17 -2 17
18 0 17 7 26 23 31 35 9 103 7 134 -5 33 -12 26 -18 -51 -44 -27 -9 -71 -30
-98 -47 -45 -28 -53 -30 -87 -20 -20 7 -74 34 -119 61 -87 53 -143 74 -181 66
-40 -7 -35 -14 8 -13 28 0 61 -10 99 -29 153 -80 178 -93 196 -98 19 -5 19 -6
-2 -21 -12 -8 -20 -20 -17 -25 4 -5 -23 -9 -64 -9 -53 0 -84 6 -126 24 -30 14
-69 27 -87 30 -36 6 -138 -12 -138 -25 0 -4 15 -3 32 2 48 13 121 11 154 -5
16 -8 43 -20 59 -26 l30 -12 -25 -10 c-60 -23 -210 -123 -210 -140 0 -17 3
-17 33 -4 18 7 53 26 78 42 94 60 174 93 219 88 8 0 25 -2 37 -2 12 -1 29 -9
38 -18 9 -9 18 -14 22 -11 3 3 38 -16 78 -44 40 -27 77 -49 83 -49 6 0 14 -5
18 -11 5 -8 -1 -10 -20 -7 -15 3 -24 2 -19 -3 14 -14 74 -21 163 -21 84 1 121
9 260 60 85 31 188 33 229 5 2 -1 -2 -9 -9 -17 -9 -12 -25 -14 -69 -10 -55 6
-164 -16 -176 -36 -3 -4 16 -1 43 7 51 16 140 19 154 5 5 -5 -4 -23 -22 -41
-32 -32 -60 -41 -60 -18 0 7 -3 8 -8 2 -4 -5 -16 -11 -27 -12 -11 -1 -54 -13
-95 -28 -41 -14 -59 -23 -40 -20 32 5 33 4 15 -9 -11 -9 -26 -16 -32 -16 -7 0
-13 -4 -13 -9 0 -4 -32 -23 -71 -41 -60 -27 -82 -32 -147 -32 -81 -1 -113 10
-224 76 -58 34 -61 41 -9 20 22 -9 48 -14 58 -12 10 2 -16 17 -62 36 -77 31
-78 32 -35 29 25 -3 59 -7 75 -10 l30 -6 -31 14 c-42 19 -102 24 -139 13 -16
-5 -55 -11 -85 -12 -30 -2 -78 -10 -105 -19 -64 -22 -255 -162 -255 -188 0
-24 3 -24 53 5 27 15 66 26 110 30 37 4 80 11 95 17 31 12 27 8 -48 -48 -71
-52 -142 -93 -163 -93 -9 0 -19 -5 -23 -11 -18 -30 117 35 192 92 65 50 139
82 172 76 26 -5 26 -5 7 10 -19 14 -17 15 25 10 25 -3 56 -8 70 -11 21 -5 21
-4 -5 8 -37 18 -130 22 -119 4 4 -6 3 -8 -4 -4 -6 3 -44 -3 -84 -13 -40 -11
-95 -23 -123 -26 l-50 -7 35 31 c57 50 151 91 212 93 60 1 68 0 123 -29 67
-35 159 -80 175 -86 8 -3 2 -6 -15 -6 -60 -2 -3 -18 70 -20 106 -2 205 22 323
79 114 56 156 65 107 25 -95 -79 -323 -215 -360 -215 -8 0 -15 -3 -15 -8 0 -4
-27 -18 -59 -31 l-60 -23 -45 28 c-25 16 -45 33 -46 37 0 5 6 5 13 1 6 -4 8
-3 4 1 -12 14 -38 15 -30 2 3 -7 -3 -3 -15 7 -17 14 -22 16 -22 5 0 -12 -2
-12 -9 0 -5 8 -28 13 -62 14 -44 0 -68 -7 -134 -41 -89 -47 -127 -54 -203 -41
-86 16 -125 40 -222 131 -103 98 -135 117 -226 132 -17 3 -49 12 -71 20 -52
18 -116 14 -189 -14 -33 -12 -77 -25 -99 -30 l-40 -8 36 -1 c19 -1 69 10 109
24 76 26 144 32 170 15 12 -8 9 -10 -11 -10 -25 0 -160 -52 -184 -70 -5 -4
-27 -13 -47 -19 -27 -9 -38 -18 -38 -32 0 -10 4 -19 9 -19 14 0 73 21 121 42
108 49 122 53 215 62 52 4 109 -23 176 -82 35 -31 82 -72 104 -91 22 -18 33
-31 25 -29 -8 3 -26 8 -40 12 -23 7 -24 6 -7 -8 10 -8 53 -24 96 -35 117 -32
232 -30 371 6 63 16 163 15 209 -3 l46 -18 -40 -11 c-22 -7 -54 -9 -70 -5 -31
7 -37 7 -115 -6 -25 -4 -48 -8 -52 -8 -3 -1 -10 -5 -15 -10 -5 -5 7 -6 27 -2
66 13 135 17 125 7 -10 -10 -177 -37 -255 -41 -123 -7 -350 3 -372 16 -4 3
-27 7 -50 10 -24 3 -51 7 -60 10 -9 3 -27 7 -40 10 -13 3 -30 7 -38 9 -8 2
-22 4 -30 5 -10 1 -9 4 5 9 19 8 79 -5 138 -28 16 -6 26 -7 22 -2 -3 6 -31 19
-63 31 -44 17 -69 21 -110 16 -44 -5 -65 -1 -132 25 l-80 32 82 35 c65 28 97
35 150 36 65 1 71 11 12 19 -34 5 -102 -14 -176 -48 -29 -14 -63 -25 -76 -25
-33 0 -117 43 -240 124 l-63 41 64 60 c44 40 97 76 163 109 84 42 107 49 157
49 35 0 53 3 45 8 -32 21 -105 9 -184 -30 l-79 -40 -6 36 c-4 20 -14 42 -23
49 -15 11 -13 14 17 33 21 13 42 19 53 14 11 -4 15 -3 10 5 -4 7 12 17 46 26
78 23 127 25 178 10 48 -14 154 -84 129 -85 -8 0 -3 -5 10 -10 28 -11 152 -92
147 -96 -1 -2 -24 1 -50 6 -78 14 -38 -6 54 -28 68 -17 109 -20 205 -17 104 3
135 9 235 40 167 53 239 51 361 -10 63 -32 101 -40 169 -35 19 1 22 3 10 10
-8 6 -17 8 -22 5 -16 -10 -102 21 -167 61 -82 51 -129 68 -185 67 -33 -1 -38
1 -23 10 10 5 36 8 58 6 21 -2 39 0 39 4 0 8 -28 12 -70 8 -14 -1 -54 -17 -90
-35 -204 -104 -285 -121 -420 -89 -45 10 -80 27 -118 57 l-55 41 29 13 c16 7
35 12 43 13 8 0 12 2 9 5 -3 3 -26 1 -51 -6 l-46 -11 -56 46 c-31 25 -61 46
-67 46 -5 0 -7 4 -4 8 2 4 29 7 60 7 31 0 58 5 60 11 5 14 109 43 172 49 45 3
150 -23 179 -44 24 -19 101 -32 125 -22 24 9 23 10 -11 10 -39 1 -81 17 -144
56 -22 14 -51 30 -65 36 -36 15 -109 14 -155 -4 -212 -79 -211 -79 -301 -44
-64 26 -142 47 -94 26 14 -6 43 -18 65 -27 64 -25 63 -33 -1 -13 -70 21 -182
101 -159 113 26 15 97 10 176 -12 65 -19 54 -8 -16 15 -75 25 -129 30 -168 16
-19 -7 -30 -4 -52 13 l-29 23 50 12 c71 17 155 6 259 -34 138 -53 284 -69 387
-41 43 11 52 26 12 18 -19 -3 -25 -1 -20 7 4 6 16 11 27 11 10 0 19 3 19 8 0
4 16 16 35 26 30 16 41 18 72 8 48 -15 55 -8 8 8 l-37 12 28 19 c30 20 77 44
104 52 31 9 111 -4 162 -27z m-1195 -92 c-3 -3 -22 -6 -42 -6 -20 0 -39 3 -42
6 -4 3 15 6 42 6 27 0 46 -3 42 -6z m1677 -64 c5 -5 -13 -15 -40 -24 -27 -8
-41 -15 -32 -15 10 -1 35 6 57 15 39 15 41 15 78 -10 21 -14 32 -26 25 -26 -6
0 -12 -4 -12 -9 0 -5 8 -7 19 -4 15 4 81 -21 81 -31 0 -1 -15 0 -32 2 -49 7
-28 -7 23 -15 76 -13 190 -6 249 14 30 11 61 18 69 15 8 -3 11 0 7 6 -8 13 34
24 102 27 54 3 63 -3 37 -25 -12 -10 -18 -10 -29 -1 -9 8 -16 8 -20 2 -4 -5
-15 -8 -26 -6 -12 2 -18 0 -15 -5 3 -4 -8 -11 -25 -15 -16 -4 -32 -11 -35 -16
-4 -5 6 -4 22 2 15 5 45 13 67 16 l40 5 -19 -28 c-26 -40 -38 -51 -52 -47 -7
3 -20 0 -31 -6 -13 -7 -32 -6 -63 2 -73 20 -108 12 -243 -56 -62 -31 -91 -40
-139 -41 -74 -3 -131 10 -175 39 l-32 22 39 18 c43 19 84 22 146 12 37 -6 37
-6 10 4 -55 19 -91 20 -136 4 -24 -9 -52 -19 -61 -22 -24 -7 -94 47 -76 60 10
6 8 7 -4 3 -10 -3 -30 1 -45 9 -15 8 -35 15 -43 15 -34 0 165 110 225 123 25
6 77 -2 89 -13z m-1629 -171 c3 -3 -13 -14 -34 -23 -33 -15 -44 -16 -81 -5
l-43 13 34 12 c35 13 117 15 124 3z m2175 -18 c0 -15 -19 -23 -38 -16 -14 5
-14 7 -2 15 19 12 40 13 40 1z m-975 -466 c-94 -25 -101 -26 -60 -5 22 11 56
19 75 19 33 -1 32 -1 -15 -14z"/>
<path d="M2150 4416 c0 -2 7 -7 16 -10 8 -3 12 -2 9 4 -6 10 -25 14 -25 6z"/>
<path d="M2198 4413 c6 -2 18 -2 25 0 6 3 1 5 -13 5 -14 0 -19 -2 -12 -5z"/>
<path d="M2240 4409 c0 -5 -9 -9 -19 -9 -11 0 -22 -4 -26 -9 -3 -6 6 -8 22 -5
15 3 31 11 35 17 6 9 8 9 8 0 0 -8 9 -9 30 -3 17 5 31 9 33 10 1 1 14 -3 28
-8 44 -17 129 -41 129 -37 0 3 -19 14 -42 26 -45 23 -198 37 -198 18z"/>
<path d="M2310 4330 c-9 -6 -10 -10 -3 -10 6 0 15 5 18 10 8 12 4 12 -15 0z"/>
<path d="M2268 4323 c7 -3 16 -2 19 1 4 3 -2 6 -13 5 -11 0 -14 -3 -6 -6z"/>
<path d="M2355 4320 c27 -12 43 -12 25 0 -8 5 -22 9 -30 9 -10 0 -8 -3 5 -9z"/>
<path d="M1961 4286 c7 -7 88 -11 94 -5 3 3 -18 7 -47 8 -28 1 -50 -1 -47 -3z"/>
<path d="M3374 4118 c-3 -4 2 -8 10 -8 8 0 17 4 20 8 3 5 -2 9 -10 9 -8 0 -17
-4 -20 -9z"/>
<path d="M3308 4113 c6 -2 18 -2 25 0 6 3 1 5 -13 5 -14 0 -19 -2 -12 -5z"/>
<path d="M2371 4007 c10 -9 59 -17 59 -9 0 4 -14 9 -32 10 -18 2 -30 1 -27 -1z"/>
<path d="M3000 4000 c0 -5 5 -10 11 -10 5 0 7 5 4 10 -3 6 -8 10 -11 10 -2 0
-4 -4 -4 -10z"/>
<path d="M3111 4448 c-33 -17 -61 -35 -61 -40 0 -10 9 -5 50 22 14 10 40 21
58 25 17 3 32 11 32 16 0 15 -14 11 -79 -23z"/>
<path d="M3206 4472 c-3 -4 4 -9 15 -9 23 -2 25 3 4 10 -8 4 -16 3 -19 -1z"/>
<path d="M1415 4795 c-27 -7 -41 -14 -30 -15 11 -1 25 -1 30 0 64 15 126 10
183 -13 82 -33 79 -24 -3 14 -70 31 -102 34 -180 14z"/>
<path d="M1492 4725 c3 -3 18 -8 34 -11 15 -3 32 -8 38 -11 8 -4 8 -2 1 5 -5
6 -26 14 -45 17 -19 3 -32 3 -28 0z"/>
<path d="M1622 4675 c26 -14 53 -25 60 -25 16 1 -79 50 -95 50 -7 0 9 -11 35
-25z"/>
<path d="M3694 4679 c-51 -18 -49 -26 2 -9 65 21 111 18 216 -16 10 -3 18 -2
18 3 0 13 -114 44 -153 41 -18 -1 -56 -10 -83 -19z"/>
<path d="M3745 4610 c-3 -6 1 -7 9 -4 18 7 21 14 7 14 -6 0 -13 -4 -16 -10z"/>
<path d="M3780 4616 c0 -2 11 -6 25 -8 13 -3 22 -1 19 3 -5 9 -44 13 -44 5z"/>
<path d="M7419 4577 c-108 -31 -201 -115 -240 -219 -28 -75 -23 -183 13 -255
70 -145 246 -228 393 -186 227 65 326 328 195 518 -80 116 -235 177 -361 142z
m156 -156 c43 -19 90 -68 107 -110 15 -39 10 -108 -11 -149 -36 -69 -99 -107
-177 -106 -43 0 -62 6 -96 30 -126 88 -120 255 12 328 54 31 109 33 165 7z"/>
<path d="M4822 4511 l3 -66 90 0 90 0 5 -265 5 -265 70 0 70 0 1 265 1 265 91
-1 c56 0 93 4 95 10 2 6 3 36 3 66 l-1 55 -263 1 -263 1 3 -66z"/>
<path d="M5616 4551 c-8 -14 -46 -107 -86 -206 -40 -99 -94 -233 -121 -297
-27 -65 -49 -122 -49 -126 0 -5 34 -9 77 -8 l76 1 18 54 c10 29 23 59 29 66
14 17 249 19 255 2 2 -7 13 -37 25 -68 l20 -55 75 0 c44 0 75 4 75 10 0 11
-147 380 -181 453 -10 24 -19 49 -19 56 0 7 -4 17 -8 23 -5 5 -19 34 -31 65
l-22 57 -60 0 c-54 0 -61 -3 -73 -27z m113 -269 l40 -112 -83 0 -83 0 41 114
c23 63 42 113 43 112 1 -1 20 -52 42 -114z"/>
<path d="M6080 4254 c0 -178 0 -327 0 -331 0 -5 33 -8 73 -8 l72 0 0 143 c0
78 2 142 5 142 3 0 50 -65 106 -143 l100 -142 97 -1 c53 0 97 1 97 3 0 2 -55
72 -122 156 -66 84 -125 157 -130 163 -8 11 39 75 197 276 25 31 41 59 37 61
-4 3 -45 5 -92 5 l-85 -1 -100 -143 c-55 -79 -102 -143 -105 -144 -3 0 -5 64
-5 142 l0 143 -72 1 -73 1 0 -323z"/>
<path d="M6686 4572 c-2 -4 -3 -153 -3 -332 l2 -325 188 0 c212 -1 198 -7 194
85 l-2 45 -105 2 c-58 1 -111 2 -117 2 -9 1 -13 21 -13 66 l0 65 114 0 113 0
-1 67 -1 68 -113 -1 -113 -1 3 66 3 66 105 1 c58 1 110 2 116 3 7 0 11 25 10
64 l-1 62 -187 2 c-104 1 -190 -2 -192 -5z"/>
<path d="M7919 4551 c-1 -14 -1 -114 -1 -223 -1 -245 8 -285 71 -348 55 -55
112 -74 218 -73 131 2 214 61 247 175 8 29 12 116 12 268 l-1 225 -72 2 c-69
2 -73 1 -74 -20 0 -12 0 -109 0 -215 1 -214 -7 -251 -56 -275 -70 -34 -160
-11 -184 46 -10 22 -14 93 -15 237 -1 113 -2 210 -3 216 -1 8 -26 12 -71 12
-69 0 -70 -1 -71 -27z"/>
<path d="M8516 4571 c-1 -3 -2 -33 -2 -66 l1 -60 87 0 c47 0 90 -3 94 -8 4 -4
8 -123 8 -264 l1 -258 70 0 70 -1 5 266 5 265 90 0 90 0 3 66 3 66 -261 0
c-143 1 -262 -2 -264 -6z"/>
<path d="M3456 4558 c3 -5 10 -6 15 -3 13 9 11 12 -6 12 -8 0 -12 -4 -9 -9z"/>
<path d="M3496 4562 c-3 -5 1 -9 9 -9 8 0 15 4 15 9 0 4 -4 8 -9 8 -6 0 -12
-4 -15 -8z"/>
<path d="M3406 4492 c-2 -4 22 -7 55 -7 33 0 51 3 42 7 -25 9 -91 10 -97 0z"/>
<path d="M1177 3213 c-4 -3 -7 -54 -7 -113 0 -105 0 -107 23 -106 19 1 22 6
22 43 -1 36 2 42 18 39 10 -1 28 -20 41 -42 20 -35 38 -47 58 -37 5 2 -1 22
-13 44 -19 39 -19 42 -3 60 20 23 21 76 1 96 -15 15 -128 28 -140 16z m101
-45 c19 -19 14 -37 -13 -50 -31 -14 -50 0 -50 37 -1 20 4 25 25 25 14 0 31 -5
38 -12z"/>
<path d="M1620 3106 l0 -112 68 2 c85 2 82 1 82 19 0 15 -25 20 -77 15 -13 -1
-24 3 -24 9 -5 44 -4 46 39 49 34 3 42 7 42 23 0 16 -7 19 -44 19 -41 0 -44 2
-42 25 1 23 5 25 54 25 44 0 52 3 52 19 0 17 -8 19 -75 19 l-75 0 0 -112z"/>
<path d="M2049 3213 c-4 -21 -5 -200 -1 -209 5 -17 95 -9 125 10 66 44 50 177
-24 197 -34 10 -99 11 -100 2z m103 -50 c18 -20 18 -94 1 -115 -7 -7 -23 -14
-37 -16 -26 -2 -26 -1 -26 73 0 72 1 75 23 75 13 0 31 -8 39 -17z"/>
<path d="M2497 3213 c-2 -5 -3 -46 -2 -92 2 -78 4 -86 29 -108 30 -25 62 -29
99 -12 35 16 44 43 43 134 -1 75 -2 80 -23 83 -22 3 -23 1 -23 -80 0 -86 -8
-108 -42 -108 -25 0 -36 27 -36 90 0 96 -1 100 -21 100 -11 0 -22 -3 -24 -7z"/>
<path d="M2993 3208 c-28 -14 -47 -59 -45 -111 2 -47 23 -83 57 -99 36 -16 98
4 113 37 16 35 16 35 -13 35 -15 0 -25 -6 -25 -15 0 -8 -12 -18 -27 -21 -35
-9 -62 23 -59 69 2 17 4 39 5 48 0 9 12 21 26 27 19 9 27 8 40 -4 8 -9 15 -19
15 -23 0 -5 11 -8 25 -8 29 0 29 0 10 36 -21 42 -71 53 -122 29z"/>
<path d="M3410 3106 l0 -112 72 1 c61 0 73 3 76 18 4 18 -8 21 -65 18 -18 -1
-33 2 -34 6 0 4 -2 18 -5 31 -4 20 0 22 41 22 39 0 45 3 45 21 0 16 -6 20 -27
19 -53 -4 -60 -1 -59 23 1 19 7 22 53 25 44 3 51 6 50 22 -1 17 -9 19 -74 19
l-73 0 0 -113z"/>
<path d="M4185 3213 c-6 -5 -11 -52 -10 -112 0 -100 1 -104 23 -107 22 -4 27
8 23 62 -3 35 29 24 58 -20 16 -26 34 -41 48 -42 24 -1 22 9 -9 61 -17 30 -17
31 2 48 28 24 26 71 -4 94 -25 20 -112 30 -131 16z m103 -64 c2 -21 -2 -28
-23 -33 -34 -9 -42 -3 -43 34 -1 29 1 31 31 28 26 -2 33 -8 35 -29z"/>
<path d="M4627 3212 c-3 -6 -1 -199 2 -213 2 -8 136 -5 139 4 9 26 0 32 -48
29 -50 -4 -50 -4 -50 27 0 30 1 31 45 31 39 0 45 3 45 21 0 18 -5 20 -42 17
-40 -2 -43 -1 -46 24 -3 26 -1 27 49 30 38 2 53 7 54 19 2 13 -10 16 -71 16
-41 1 -75 -2 -77 -5z"/>
<path d="M5050 3127 c0 -103 8 -119 63 -132 33 -9 84 10 97 36 6 10 10 56 10
103 0 83 -1 86 -23 86 -22 0 -23 -3 -24 -85 -1 -95 -5 -105 -38 -105 -34 0
-39 15 -40 105 0 75 -1 80 -23 83 -21 3 -22 1 -22 -91z"/>
<path d="M5538 3209 c-56 -32 -39 -87 34 -118 37 -15 49 -25 46 -38 -5 -27
-54 -29 -67 -4 -7 13 -18 18 -32 16 -32 -6 -32 -10 -7 -39 34 -39 97 -45 134
-12 25 21 27 27 19 52 -7 20 -26 37 -59 54 -54 28 -64 41 -44 57 15 12 58 0
58 -17 0 -5 11 -10 25 -10 32 0 32 14 0 45 -26 27 -75 33 -107 14z"/>
<path d="M5950 3106 l0 -112 72 1 c61 0 73 3 76 18 3 17 -18 22 -75 17 -13 -1
-24 3 -24 9 -5 44 -4 46 36 49 39 3 59 18 48 35 -3 4 -17 8 -31 7 -51 -4 -58
-1 -58 25 0 24 3 25 54 25 46 0 53 3 50 18 -3 14 -16 17 -76 19 l-72 2 0 -113z"/>
<path d="M6715 3107 c0 -98 3 -110 18 -113 20 -3 29 14 31 54 2 41 23 37 53
-10 15 -24 34 -43 41 -42 6 1 16 2 22 3 5 0 -1 20 -14 44 -23 41 -23 42 -5 61
27 28 24 70 -7 95 -20 16 -40 20 -83 20 l-57 -1 1 -111z m112 62 c11 -11 7
-48 -6 -50 -45 -9 -56 -3 -58 29 -1 29 2 32 26 32 15 0 32 -5 38 -11z"/>
<path d="M7169 3211 c-4 -22 -4 -203 1 -209 9 -14 139 -9 144 5 7 18 -9 25
-59 25 -43 0 -45 1 -45 29 0 28 2 29 45 29 39 0 45 3 45 21 0 18 -5 20 -42 17
-40 -3 -43 -1 -46 25 -3 26 -2 27 46 27 53 0 63 5 56 25 -4 9 -26 13 -75 13
-38 0 -70 -3 -70 -7z"/>
<path d="M7592 3108 c3 -105 4 -113 23 -113 16 0 20 7 20 38 0 20 4 37 10 38
5 0 25 2 42 3 65 5 94 67 54 117 -15 19 -30 23 -85 26 l-67 3 3 -112z m116 60
c18 -23 -4 -58 -37 -58 -31 0 -41 17 -33 53 5 20 54 24 70 5z"/>
<path d="M8046 3211 c-2 -3 -4 -53 -3 -111 l0 -105 74 0 c67 -1 73 1 73 20 0
18 -6 20 -50 18 -49 -2 -50 -2 -50 27 0 29 2 30 43 30 36 0 43 3 44 20 1 11
-4 20 -10 19 -7 -1 -27 -1 -44 0 -28 1 -33 5 -33 26 0 23 3 25 50 25 43 0 50
3 50 19 0 18 -7 20 -70 19 -39 0 -72 -4 -74 -7z"/>
<path d="M8497 3123 c-45 -124 -46 -125 -24 -128 11 -2 22 6 29 21 16 34 81
35 100 2 15 -27 63 -35 53 -9 -4 9 -20 51 -36 94 -38 103 -46 117 -68 117 -15
0 -27 -22 -54 -97z m77 -20 c6 -20 4 -23 -18 -23 -30 0 -29 -2 -15 40 12 34
19 30 33 -17z"/>
<path d="M8914 3208 c-9 -14 7 -26 40 -30 l29 -3 1 -90 c1 -83 3 -90 21 -90
18 0 20 8 23 93 l3 92 32 0 c25 0 33 4 33 19 0 17 -8 19 -88 19 -49 -1 -91 -5
-94 -10z"/>
<path d="M3837 3026 c-7 -17 18 -40 33 -31 5 3 10 15 10 26 0 23 -35 27 -43 5z"/>
<path d="M6377 3021 c-3 -12 1 -22 10 -26 20 -7 43 12 36 31 -8 21 -40 17 -46
-5z"/>
</g>
</svg>
